<svg xmlns="http://www.w3.org/2000/svg" xmlns:xlink="http://www.w3.org/1999/xlink" width="500" zoomAndPan="magnify" viewBox="0 0 375 374.999991" height="500" preserveAspectRatio="xMidYMid meet" version="1.0"><defs><clipPath id="a557c9f546"><path d="M 37.5 37.5 L 333.554688 37.5 L 333.554688 315.117188 L 37.5 315.117188 Z M 37.5 37.5 " clip-rule="nonzero"/></clipPath><clipPath id="c782c597e9"><path d="M 54.75 37.5 L 315.902344 37.5 C 320.480469 37.5 324.867188 39.316406 328.101562 42.550781 C 331.335938 45.789062 333.152344 50.175781 333.152344 54.75 L 333.152344 297.867188 C 333.152344 302.441406 331.335938 306.832031 328.101562 310.066406 C 324.867188 313.300781 320.480469 315.117188 315.902344 315.117188 L 54.75 315.117188 C 50.175781 315.117188 45.789062 313.300781 42.550781 310.066406 C 39.316406 306.832031 37.5 302.441406 37.5 297.867188 L 37.5 54.75 C 37.5 50.175781 39.316406 45.789062 42.550781 42.550781 C 45.789062 39.316406 50.175781 37.5 54.75 37.5 Z M 54.75 37.5 " clip-rule="nonzero"/></clipPath><clipPath id="1c77a8e87d"><path d="M 117 91.910156 L 280.941406 91.910156 L 280.941406 190 L 117 190 Z M 117 91.910156 " clip-rule="nonzero"/></clipPath><clipPath id="d3b4ba9850"><path d="M 89.691406 166 L 246 166 L 246 260.660156 L 89.691406 260.660156 Z M 89.691406 166 " clip-rule="nonzero"/></clipPath></defs><g clip-path="url(#a557c9f546)"><g clip-path="url(#c782c597e9)"><path fill="#000000" d="M 37.5 37.5 L 333.554688 37.5 L 333.554688 315.117188 L 37.5 315.117188 Z M 37.5 37.5 " fill-opacity="1" fill-rule="nonzero"/></g></g><g clip-path="url(#1c77a8e87d)"><path fill="#ffffff" d="M 143.90625 189.660156 L 117.777344 140.660156 L 205.421875 91.921875 L 280.929688 113.457031 Z M 143.90625 189.660156 " fill-opacity="1" fill-rule="evenodd"/></g><g clip-path="url(#d3b4ba9850)"><path fill="#d7fa00" d="M 89.691406 239.121094 L 220.726562 166.25 L 246 215.730469 L 165.191406 260.664062 Z M 89.691406 239.121094 " fill-opacity="1" fill-rule="evenodd"/></g></svg>